<?xml version="1.0"?>
<svg xmlns="http://www.w3.org/2000/svg" xmlns:xlink="http://www.w3.org/1999/xlink" xmlns:svgjs="http://svgjs.com/svgjs" version="1.1" width="512" height="512" x="0" y="0" viewBox="0 0 484 484.614" style="enable-background:new 0 0 512 512" xml:space="preserve" class=""><g><path xmlns="http://www.w3.org/2000/svg" d="m477.980469 200.84375-46.113281-4.445312c-4.835938-19.734376-12.773438-38.582032-23.511719-55.832032l29.375-35.472656c2.292969-2.769531 2.117187-6.824219-.410157-9.382812l-48.046874-48.660157c-2.550782-2.585937-6.648438-2.789062-9.445313-.476562l-35.519531 29.417969c-17.269532-10.679688-36.085938-18.625-55.785156-23.550782l-4.445313-46.113281c-.34375-3.589844-3.359375-6.328125-6.964844-6.328125h-68.992187c-3.605469 0-6.621094 2.738281-6.96875 6.328125l-4.445313 46.109375c-19.738281 4.839844-38.582031 12.773438-55.832031 23.511719l-35.46875-29.375c-2.78125-2.304688-6.859375-2.113281-9.414062.441406l-48.667969 48.664063c-2.554688 2.554687-2.746094 6.632812-.441407 9.414062l29.417969 35.523438c-10.683593 17.265624-18.625 36.082031-23.554687 55.78125l-46.109375 4.445312c-3.589844.34375-6.328125 3.359375-6.328125 6.964844v69c0 3.605468 2.738281 6.621094 6.328125 6.964844l46.109375 4.445312c4.835937 19.734375 12.773437 38.578125 23.511718 55.828125l-29.375 35.472656c-2.304687 2.78125-2.113281 6.859375.441407 9.414063l48.664062 48.664062c2.554688 2.554688 6.632813 2.742188 9.414063.441406l35.519531-29.417968c17.269531 10.679687 36.085937 18.625 55.785156 23.550781l4.445313 46.113281c.34375 3.589844 3.359375 6.328125 6.964844 6.328125h68.988281c3.609375 0 6.625-2.738281 6.96875-6.328125l3.269531-33.917968c21.128906 22.527343 50.644531 35.300781 81.53125 35.277343 61.679688 0 111.859375-50.0625 111.859375-111.597656.011719-30.691406-12.667969-60.019531-35.027344-81.039063l32.300781-3.238281c3.574219-.359375 6.300782-3.371093 6.300782-6.964843v-68.996094c-.003906-3.605469-2.742188-6.617188-6.328125-6.964844zm-11.242188 167.199219c0 53.820312-43.898437 97.601562-97.859375 97.601562-32.1875.003907-62.324218-15.816406-80.597656-42.316406-.269531-.53125-.605469-1.023437-1-1.46875-10.625-15.9375-16.285156-34.664063-16.265625-53.820313 0-53.816406 43.902344-97.597656 97.863281-97.597656 53.957032 0 97.859375 43.785156 97.859375 97.601563zm-86.8125-111.058594c-3.636719-.359375-7.316406-.539063-11.046875-.542969-11.804687-.007812-23.539062 1.855469-34.761718 5.523438-2.09375-23.195313-21.519532-40.972656-44.808594-41h-10.425782c-2.933593 0-5.554687 1.828125-6.570312 4.578125l-16.929688 45.976562-1.296874-13.242187c1.738281-.796875 3.078124-2.273438 3.699218-4.085938l7.246094-21.238281c.726562-2.132813.382812-4.488281-.925781-6.324219-1.308594-1.835937-3.421875-2.929687-5.675781-2.9375l-30.199219-.105468h-.023438c-2.257812 0-4.375 1.085937-5.691406 2.921874-1.3125 1.835938-1.664063 4.191407-.9375 6.328126l7.246094 21.347656c.722656 2.113281 2.40625 3.757812 4.539062 4.425781l-1.34375 13.6875-17.285156-46.761719c-1.015625-2.746094-3.632813-4.570312-6.5625-4.570312h-12.863281c-24.847656.027344-44.976563 20.164062-45 45.007812l.097656 79.058594c-29.21875-26.148438-45.914062-63.511719-45.898438-102.722656 0-76.152344 61.953126-138.105469 138.097657-138.105469 76.148437 0 138.113281 61.953125 138.113281 138.105469-.007812 4.902344-.269531 9.800781-.792969 14.675781zm-133.773437-12.050781h-5.683594l-2.480469-7.316406 10.644531.039062zm-2.414063 51.21875 4.402344 44.757812-4.304687 2.90625-4.5-2.960937zm-79.3125 59.929687-.117187-90.121093c.019531-17.113282 13.886718-30.980469 31-31h7.988281l25.585937 69.222656-3.890624 39.507812c-.253907 2.585938.945312 5.101563 3.117187 6.53125l11.925781 7.851563c2.359375 1.554687 5.425782 1.539062 7.769532-.042969l10.53125-7.109375c-1.46875 9.484375-1.710938 19.117187-.722657 28.664063-4.980469.542968-9.988281.820312-15 .828124-27.929687.027344-55.207031-8.460937-78.1875-24.332031zm97.300781-20.089843-3.203124-32.503907 25.234374-68.527343h5.550782c17.109375.019531 30.980468 13.886718 31 31v1.5625c-28.238282 13.636718-49.480469 38.464843-58.582032 68.46875zm208.582032-65.523438-40.457032 4.054688c-11.027343-7.1875-23.238281-12.367188-36.070312-15.292969.621094-5.621094.9375-11.269531.9375-16.921875 0-83.871094-68.234375-152.105469-152.105469-152.105469-83.871093 0-152.105469 68.234375-152.105469 152.105469s68.230469 152.101562 152.097657 152.101562c5.789062 0 11.574219-.328125 17.328125-.980468 2.910156 12.421874 7.945312 24.25 14.882812 34.960937l-4.070312 42.226563h-56.269532l-4.316406-44.800782c-.292968-3.03125-2.511718-5.527344-5.488281-6.171875-21.546875-4.789062-42.046875-13.4375-60.515625-25.527343-2.566406-1.652344-5.910156-1.453126-8.261719.492187l-34.511719 28.582031-39.652343-39.648437 28.582031-34.515625c1.972656-2.382813 2.148438-5.773438.433594-8.347656-12.167969-18.386719-20.804688-38.878907-25.46875-60.425782-.644532-2.980468-3.140625-5.199218-6.171875-5.488281l-44.796875-4.320313v-56.273437l44.796875-4.320313c3.03125-.292968 5.527343-2.511718 6.171875-5.488281 4.789062-21.546875 13.4375-42.046875 25.53125-60.515625 1.652344-2.566406 1.457031-5.90625-.492188-8.257812l-28.585937-34.515625 39.652343-39.652344 34.511719 28.585937c2.382813 1.972657 5.777344 2.148438 8.347657.433594 18.390624-12.167968 38.882812-20.804687 60.429687-25.472656 2.976563-.640625 5.195313-3.136719 5.488281-6.167969l4.316406-44.800781h56.277344l4.316406 44.800781c.292969 3.03125 2.511719 5.527344 5.488282 6.167969 21.546875 4.789062 42.046875 13.4375 60.515625 25.527344 2.566406 1.65625 5.910156 1.457031 8.261719-.488282l34.480468-28.558593 39.089844 39.589843-28.605469 34.546876c-1.972656 2.382812-2.148437 5.777343-.433593 8.347656 12.167968 18.390625 20.804687 38.878906 25.472656 60.429687.640625 2.976563 3.136718 5.195313 6.167968 5.488281l44.800782 4.316407zm0 0" fill="#cbb394" data-original="#000000" style="" class=""/><path xmlns="http://www.w3.org/2000/svg" d="m244.4375 115.386719h-4.261719c-22.6875.023437-41.074219 18.410156-41.101562 41.097656v18.757813c.027343 22.6875 18.414062 41.074218 41.101562 41.101562h4.261719c22.6875-.027344 41.074219-18.414062 41.101562-41.101562v-18.753907c-.027343-22.691406-18.410156-41.074219-41.101562-41.101562zm27.101562 59.855469c-.019531 14.960937-12.140624 27.085937-27.101562 27.101562h-4.261719c-14.960937-.019531-27.082031-12.140625-27.101562-27.101562v-18.753907c.019531-14.960937 12.140625-27.082031 27.101562-27.101562h4.261719c14.960938.019531 27.082031 12.140625 27.101562 27.101562zm0 0" fill="#cbb394" data-original="#000000" style="" class=""/><path xmlns="http://www.w3.org/2000/svg" d="m368.878906 314.359375c12.695313.015625 22.984375 10.304687 23 23 0 3.867187 3.132813 7 7 7 3.867188 0 7-3.132813 7-7-.023437-17.722656-12.597656-32.949219-30-36.324219v-10.15625c0-3.867187-3.132812-7-7-7-3.867187 0-7 3.132813-7 7v10.15625c-18.714844 3.617188-31.621094 20.867188-29.808594 39.84375 1.8125 18.976563 17.746094 33.46875 36.808594 33.480469 12.554688.128906 22.6875 10.304687 22.765625 22.859375s-9.929687 22.851562-22.484375 23.136719c-.097656 0-.1875-.015625-.28125-.015625s-.1875.011718-.28125.015625c-12.585937-.167969-22.703125-10.410157-22.71875-22.996094 0-3.863281-3.132812-7-7-7-3.867187 0-7 3.136719-7 7 .023438 17.726563 12.597656 32.953125 30 36.328125v11.519531c0 3.867188 3.132813 7 7 7 3.867188 0 7-3.132812 7-7v-11.519531c18.714844-3.617188 31.621094-20.867188 29.808594-39.84375s-17.746094-33.46875-36.808594-33.484375c-12.703125 0-23-10.296875-23-23 0-12.699219 10.296875-23 23-23zm0 0" fill="#cbb394" data-original="#000000" style="" class=""/></g></svg>
