<?xml version="1.0"?>
<svg xmlns="http://www.w3.org/2000/svg" xmlns:xlink="http://www.w3.org/1999/xlink" xmlns:svgjs="http://svgjs.com/svgjs" version="1.1" width="512" height="512" x="0" y="0" viewBox="0 0 511.999 511.999" style="enable-background:new 0 0 512 512" xml:space="preserve" class=""><g><path xmlns="http://www.w3.org/2000/svg" d="m156.5 265.988281c5.289062-.269531 9.5-4.636719 9.5-9.988281s-4.210938-9.71875-9.5-9.988281c-.160156-.011719-.328125-.011719-.5-.011719-5.519531 0-10 4.480469-10 10s4.480469 10 10 10c.171875 0 .339844 0 .5-.011719zm0 0" fill="#cbb394" data-original="#000000" style="" class=""/><path xmlns="http://www.w3.org/2000/svg" d="m40 296c18.605469 0 34.28125-12.765625 38.734375-30h27.605469c2.238281 33.847656 15.75 64.65625 36.8125 88.707031l-21.320313 21.320313c-14.945312-8.851563-35.128906-7.304688-48.613281 6.183594-15.589844 15.589843-15.589844 40.964843.003906 56.574218 15.597656 15.582032 40.972656 15.589844 56.566406-.003906 13.488282-13.484375 15.035157-33.667969 6.183594-48.613281l21.320313-21.320313c24.046875 21.0625 54.859375 34.570313 88.707031 36.808594v27.609375c-17.234375 4.453125-30 20.128906-30 38.734375 0 22.054688 17.941406 40 40 40 22.054688 0 40-17.945312 40-40 0-18.605469-12.769531-34.28125-30-38.734375v-27.609375c33.84375-2.238281 64.65625-15.746094 88.703125-36.808594l21.320313 21.320313c-8.871094 14.980469-7.277344 35.152343 6.183593 48.613281 15.589844 15.589844 40.96875 15.589844 56.574219-.003906 15.589844-15.601563 15.589844-40.976563 0-56.566406-13.488281-13.488282-33.667969-15.035157-48.613281-6.183594l-21.320313-21.320313c21.0625-24.046875 34.570313-54.859375 36.808594-88.707031h27.609375c4.453125 17.234375 20.128906 30 38.734375 30 22.054688 0 40-17.941406 40-40 0-22.054688-17.945312-40-40-40-18.605469 0-34.28125 12.769531-38.734375 30h-27.609375c-2.238281-33.84375-15.746094-64.65625-36.808594-88.703125l21.320313-21.320313c14.980469 8.871094 35.152343 7.277344 48.613281-6.183593 15.589844-15.59375 15.589844-40.96875-.003906-56.574219-15.601563-15.589844-40.976563-15.589844-56.566406 0-13.488282 13.488281-15.035157 33.667969-6.183594 48.617188l-21.320313 21.316406c-24.046875-21.058594-54.859375-34.570313-88.707031-36.808594v-27.609375c17.234375-4.453125 30-20.128906 30-38.734375 0-22.054688-17.941406-40-40-40-22.054688 0-40 17.945312-40 40 0 18.605469 12.769531 34.28125 30 38.734375v27.605469c-33.84375 2.238281-64.65625 15.75-88.703125 36.8125l-21.320313-21.320313c8.847657-14.945312 7.300782-35.128906-6.183593-48.613281-15.59375-15.589844-40.96875-15.589844-56.574219.003906-15.589844 15.601563-15.589844 40.976563 0 56.566406 13.488281 13.488282 33.667969 15.035157 48.613281 6.183594l21.320313 21.320313c-21.0625 24.046875-34.570313 54.859375-36.808594 88.707031h-27.609375c-4.453125-17.234375-20.128906-30-38.734375-30-22.054688 0-40 17.941406-40 40 0 22.054688 17.945312 40 40 40zm75.648438 128.640625c-7.796876 7.792969-20.488282 7.792969-28.285157 0-7.796875-7.800781-7.796875-20.492187-.003906-28.289063 7.800781-7.800781 20.449219-7.839843 28.289063 0 0 0 .003906 0 .003906.003907 7.816406 7.808593 7.816406 20.460937-.003906 28.285156zm160.351562 47.359375c0 11.027344-8.972656 20-20 20s-20-8.972656-20-20 8.972656-20 20-20 20 8.972656 20 20zm148.640625-75.648438c7.792969 7.796876 7.792969 20.488282 0 28.285157-7.800781 7.796875-20.492187 7.796875-28.289063.003906-7.800781-7.800781-7.839843-20.449219 0-28.289063 0 0 0-.003906.003907-.003906 7.808593-7.816406 20.460937-7.816406 28.285156.003906zm47.359375-160.351562c11.027344 0 20 8.972656 20 20s-8.972656 20-20 20-20-8.972656-20-20 8.972656-20 20-20zm-75.648438-148.640625c7.796876-7.792969 20.488282-7.792969 28.285157 0 7.796875 7.800781 7.796875 20.492187.003906 28.289063-7.800781 7.800781-20.449219 7.839843-28.289063 0 0 0-.003906 0-.003906-.003907-7.816406-7.808593-7.820312-20.460937.003906-28.285156zm-160.351562-47.359375c0-11.027344 8.972656-20 20-20s20 8.972656 20 20-8.972656 20-20 20-20-8.972656-20-20zm-148.640625 75.648438c-7.792969-7.796876-7.792969-20.488282 0-28.285157 7.792969-7.789062 20.488281-7.804687 28.289063-.003906 7.800781 7.800781 7.839843 20.449219 0 28.289063 0 0 0 .003906-.003907.003906-7.808593 7.816406-20.460937 7.816406-28.285156-.003906zm168.640625 10.351562c71.683594 0 130 58.316406 130 130s-58.316406 130-130 130-130-58.316406-130-130 58.316406-130 130-130zm-216 110c11.027344 0 20 8.972656 20 20s-8.972656 20-20 20-20-8.972656-20-20 8.972656-20 20-20zm0 0" fill="#cbb394" data-original="#000000" style="" class=""/><path xmlns="http://www.w3.org/2000/svg" d="m256 286c-4.273438 0-8.882812-2.6875-12.984375-7.566406-3.554687-4.226563-9.863281-4.773438-14.089844-1.21875-4.230469 3.554687-4.773437 9.863281-1.21875 14.089844 5.34375 6.359374 11.632813 10.789062 18.292969 13.023437v11.671875c0 5.523438 4.476562 10 10 10s10-4.476562 10-10v-11.71875c11.640625-4.128906 20-15.246094 20-28.28125 0-16.542969-13.457031-30-30-30-5.515625 0-10-4.484375-10-10s4.484375-10 10-10c3.542969 0 7.28125 1.808594 10.816406 5.226562 3.96875 3.839844 10.300782 3.738282 14.140625-.234374 3.839844-3.96875 3.734375-10.296876-.234375-14.136719-5.074218-4.914063-10.152344-7.691407-14.722656-9.207031v-11.648438c0-5.523438-4.476562-10-10-10s-10 4.476562-10 10v11.71875c-11.640625 4.128906-20 15.246094-20 28.28125 0 16.542969 13.457031 30 30 30 5.511719 0 10 4.484375 10 10s-4.484375 10-10 10zm0 0" fill="#cbb394" data-original="#000000" style="" class=""/><path xmlns="http://www.w3.org/2000/svg" d="m256 366c60.652344 0 110-49.347656 110-110s-49.347656-110-110-110c-44.175781 0-83.90625 26.253906-101.21875 66.878906-2.167969 5.082032.199219 10.957032 5.277344 13.121094 5.082031 2.164062 10.957031-.199219 13.121094-5.28125 14.164062-33.238281 46.675781-54.71875 82.820312-54.71875 49.625 0 90 40.375 90 90s-40.375 90-90 90c-36.144531 0-68.65625-21.480469-82.820312-54.71875-2.164063-5.082031-8.039063-7.441406-13.121094-5.28125-5.078125 2.167969-7.441406 8.039062-5.277344 13.121094 17.3125 40.625 57.042969 66.878906 101.21875 66.878906zm0 0" fill="#cbb394" data-original="#000000" style="" class=""/></g></svg>
