<?xml version="1.0"?>
<svg xmlns="http://www.w3.org/2000/svg" xmlns:xlink="http://www.w3.org/1999/xlink" xmlns:svgjs="http://svgjs.com/svgjs" version="1.1" width="512" height="512" x="0" y="0" viewBox="0 0 512 512" style="enable-background:new 0 0 512 512" xml:space="preserve" class=""><g><g xmlns="http://www.w3.org/2000/svg" id="Outline"><path d="m488 400h-8v-248a40.135 40.135 0 0 0 -20-34.648l-8 13.848a24.1 24.1 0 0 1 12 20.8v248h-140.688a35.065 35.065 0 0 0 -24.968 10.344 19.452 19.452 0 0 1 -13.657 5.656h-57.375a19.451 19.451 0 0 1 -13.656-5.656 35.065 35.065 0 0 0 -24.969-10.344h-140.687v-248a24.1 24.1 0 0 1 12-20.8l-8-13.848a40.135 40.135 0 0 0 -20 34.648v248h-8a8 8 0 0 0 -8 8v24a32.036 32.036 0 0 0 32 32h416a32.036 32.036 0 0 0 32-32v-24a8 8 0 0 0 -8-8zm-8 32a16.016 16.016 0 0 1 -16 16h-416a16.016 16.016 0 0 1 -16-16v-16h156.687a19.452 19.452 0 0 1 13.657 5.656 35.059 35.059 0 0 0 24.937 10.344h57.438a35.059 35.059 0 0 0 24.937-10.341 19.451 19.451 0 0 1 13.656-5.659h156.688z" fill="#cbb394" data-original="#000000" style=""/><path d="m424 88v296h16v-296a40 40 0 0 0 -40-40h-288a40.047 40.047 0 0 0 -40 40v296h16v-296a24.027 24.027 0 0 1 24-24h288a24 24 0 0 1 24 24z" fill="#cbb394" data-original="#000000" style=""/><path d="m111.996 80h16v16h-16z" fill="#cbb394" data-original="#000000" style=""/><path d="m143.996 80h16v16h-16z" fill="#cbb394" data-original="#000000" style=""/><path d="m175.996 80h16v16h-16z" fill="#cbb394" data-original="#000000" style=""/><path d="m112 112h288v16h-288z" fill="#cbb394" data-original="#000000" style=""/><path d="m144 144a32 32 0 1 0 32 32 32.036 32.036 0 0 0 -32-32zm0 48a16 16 0 1 1 16-16 16.016 16.016 0 0 1 -16 16z" fill="#cbb394" data-original="#000000" style=""/><path d="m144 304a32 32 0 1 0 32 32 32.036 32.036 0 0 0 -32-32zm0 48a16 16 0 1 1 16-16 16.016 16.016 0 0 1 -16 16z" fill="#cbb394" data-original="#000000" style=""/><path d="m320 288h16c0-60.092-44.447-109.864-102.163-118.524l11.819-11.82-11.312-11.312-24 24a8 8 0 0 0 0 11.312l24 24 11.312-11.312-8.055-8.055a104.154 104.154 0 0 1 82.399 101.711z" fill="#cbb394" data-original="#000000" style=""/><path d="m328 368a32 32 0 1 0 -32-32 32.036 32.036 0 0 0 32 32zm0-48a16 16 0 1 1 -16 16 16.016 16.016 0 0 1 16-16z" fill="#cbb394" data-original="#000000" style=""/><path d="m253.656 365.656 24-24a8 8 0 0 0 0-11.312l-24-24-11.312 11.312 10.343 10.344h-60.687v16h60.687l-10.343 10.344z" fill="#cbb394" data-original="#000000" style=""/><path d="m197.656 285.656 18.344-18.343 18.344 18.343 11.312-11.312-18.344-18.344 18.344-18.344-11.312-11.312-18.344 18.344-18.344-18.344-11.312 11.312 18.343 18.344-18.343 18.344z" fill="#cbb394" data-original="#000000" style=""/><path d="m386.344 154.344-18.344 18.344-18.344-18.344-11.312 11.312 18.343 18.344-18.343 18.344 11.312 11.312 18.344-18.343 18.344 18.343 11.312-11.312-18.344-18.344 18.344-18.344z" fill="#cbb394" data-original="#000000" style=""/></g></g></svg>
